<svg width="714" height="798" viewBox="0 0 714 798" fill="none" xmlns="http://www.w3.org/2000/svg">
<g opacity="0.8">
<ellipse cx="131.04" cy="130.04" rx="131.04" ry="130.04" transform="matrix(-0.488541 0.872541 0.872541 0.488541 301.882 195.991)" fill="#FF0010"/>
<ellipse cx="69.0211" cy="70.0214" rx="69.0211" ry="70.0214" transform="matrix(-0.488541 0.872541 0.872541 0.488541 382.41 523.101)" fill="#008AFF"/>
<ellipse cx="23.007" cy="22.0067" rx="23.007" ry="22.0067" transform="matrix(-0.488541 0.872541 0.872541 0.488541 154.776 315.397)" fill="#008AFF"/>
<circle cx="70.0214" cy="70.0214" r="70.0214" transform="matrix(-0.488541 0.872541 0.872541 0.488541 155.697 506.22)" fill="#FFB100"/>
<circle cx="450.464" cy="217.277" r="24.0073" transform="rotate(-60.7553 450.464 217.277)" fill="#FFB100"/>
<circle cx="70.0214" cy="70.0214" r="70.0214" transform="matrix(-0.488541 0.872541 0.872541 0.488541 329.727 2.93225)" fill="#00FFFF"/>
<circle cx="25.0076" cy="25.0076" r="25.0076" transform="matrix(-0.488541 0.872541 0.872541 0.488541 72.3262 450.369)" fill="#00FFFF"/>
</g>
</svg>
