<svg width="30" height="30" viewBox="0 0 30 30" fill="none" xmlns="http://www.w3.org/2000/svg">
<path d="M15 2.8125C12.5895 2.8125 10.2332 3.52728 8.22899 4.86646C6.22477 6.20564 4.66267 8.10907 3.74022 10.336C2.81778 12.563 2.57643 15.0135 3.04668 17.3777C3.51694 19.7418 4.67769 21.9134 6.38214 23.6179C8.08659 25.3223 10.2582 26.4831 12.6223 26.9533C14.9865 27.4236 17.437 27.1822 19.664 26.2598C21.8909 25.3373 23.7944 23.7752 25.1335 21.771C26.4727 19.7668 27.1875 17.4105 27.1875 15C27.1841 11.7687 25.899 8.67076 23.6141 6.3859C21.3292 4.10104 18.2313 2.81591 15 2.8125ZM15.9375 25.2691V17.8125H18.75C18.9986 17.8125 19.2371 17.7137 19.4129 17.5379C19.5887 17.3621 19.6875 17.1236 19.6875 16.875C19.6875 16.6264 19.5887 16.3879 19.4129 16.2121C19.2371 16.0363 18.9986 15.9375 18.75 15.9375H15.9375V13.125C15.9375 12.6277 16.135 12.1508 16.4867 11.7992C16.8383 11.4475 17.3152 11.25 17.8125 11.25H19.6875C19.9361 11.25 20.1746 11.1512 20.3504 10.9754C20.5262 10.7996 20.625 10.5611 20.625 10.3125C20.625 10.0639 20.5262 9.8254 20.3504 9.64959C20.1746 9.47377 19.9361 9.375 19.6875 9.375H17.8125C16.8179 9.375 15.8641 9.77009 15.1609 10.4733C14.4576 11.1766 14.0625 12.1304 14.0625 13.125V15.9375H11.25C11.0014 15.9375 10.7629 16.0363 10.5871 16.2121C10.4113 16.3879 10.3125 16.6264 10.3125 16.875C10.3125 17.1236 10.4113 17.3621 10.5871 17.5379C10.7629 17.7137 11.0014 17.8125 11.25 17.8125H14.0625V25.2691C11.4197 25.0279 8.9716 23.7771 7.22747 21.7769C5.48334 19.7767 4.57743 17.1812 4.69819 14.5301C4.81894 11.879 5.95706 9.37659 7.8758 7.54325C9.79454 5.70991 12.3462 4.68684 15 4.68684C17.6538 4.68684 20.2055 5.70991 22.1242 7.54325C24.043 9.37659 25.1811 11.879 25.3018 14.5301C25.4226 17.1812 24.5167 19.7767 22.7725 21.7769C21.0284 23.7771 18.5803 25.0279 15.9375 25.2691Z" fill="#EFF2FD"/>
</svg>
