<svg width="26" height="26" viewBox="0 0 26 26" fill="none" xmlns="http://www.w3.org/2000/svg">
<path d="M13 7.375C11.8875 7.375 10.7999 7.7049 9.87492 8.32298C8.94989 8.94107 8.22892 9.81957 7.80318 10.8474C7.37744 11.8752 7.26604 13.0062 7.48308 14.0974C7.70013 15.1885 8.23585 16.1908 9.02252 16.9775C9.80919 17.7641 10.8115 18.2999 11.9026 18.5169C12.9938 18.734 14.1248 18.6226 15.1526 18.1968C16.1804 17.7711 17.0589 17.0501 17.677 16.1251C18.2951 15.2001 18.625 14.1125 18.625 13C18.6234 11.5086 18.0303 10.0788 16.9758 9.02424C15.9212 7.96968 14.4914 7.37655 13 7.375ZM13 16.75C12.2583 16.75 11.5333 16.5301 10.9166 16.118C10.2999 15.706 9.81928 15.1203 9.53545 14.4351C9.25162 13.7498 9.17736 12.9958 9.32205 12.2684C9.46675 11.541 9.8239 10.8728 10.3483 10.3483C10.8728 9.8239 11.541 9.46675 12.2684 9.32205C12.9958 9.17736 13.7498 9.25162 14.4351 9.53545C15.1203 9.81928 15.706 10.2999 16.118 10.9166C16.5301 11.5333 16.75 12.2583 16.75 13C16.75 13.9946 16.3549 14.9484 15.6516 15.6516C14.9484 16.3549 13.9946 16.75 13 16.75ZM18.625 0.8125H7.375C5.63509 0.814361 3.96697 1.50636 2.73667 2.73667C1.50636 3.96697 0.814361 5.63509 0.8125 7.375V18.625C0.814361 20.3649 1.50636 22.033 2.73667 23.2633C3.96697 24.4936 5.63509 25.1856 7.375 25.1875H18.625C20.3649 25.1856 22.033 24.4936 23.2633 23.2633C24.4936 22.033 25.1856 20.3649 25.1875 18.625V7.375C25.1856 5.63509 24.4936 3.96697 23.2633 2.73667C22.033 1.50636 20.3649 0.814361 18.625 0.8125ZM23.3125 18.625C23.3125 19.8682 22.8186 21.0605 21.9396 21.9396C21.0605 22.8186 19.8682 23.3125 18.625 23.3125H7.375C6.1318 23.3125 4.93951 22.8186 4.06044 21.9396C3.18136 21.0605 2.6875 19.8682 2.6875 18.625V7.375C2.6875 6.1318 3.18136 4.93951 4.06044 4.06044C4.93951 3.18136 6.1318 2.6875 7.375 2.6875H18.625C19.8682 2.6875 21.0605 3.18136 21.9396 4.06044C22.8186 4.93951 23.3125 6.1318 23.3125 7.375V18.625ZM20.5 6.90625C20.5 7.18438 20.4175 7.45626 20.263 7.68752C20.1085 7.91878 19.8889 8.09902 19.6319 8.20546C19.3749 8.31189 19.0922 8.33974 18.8194 8.28548C18.5466 8.23122 18.296 8.09729 18.0994 7.90062C17.9027 7.70395 17.7688 7.45338 17.7145 7.1806C17.6603 6.90781 17.6881 6.62506 17.7945 6.3681C17.901 6.11114 18.0812 5.89152 18.3125 5.737C18.5437 5.58247 18.8156 5.5 19.0938 5.5C19.4667 5.5 19.8244 5.64816 20.0881 5.91188C20.3518 6.1756 20.5 6.53329 20.5 6.90625Z" fill="#EFF2FD"/>
</svg>
