<svg width="30" height="30" viewBox="0 0 30 30" fill="none" xmlns="http://www.w3.org/2000/svg">
<path d="M27.7594 3.06917C27.6141 2.94374 27.4374 2.86032 27.2483 2.8279C27.0591 2.79548 26.8647 2.81529 26.686 2.88519L2.93674 12.1793C2.60016 12.3102 2.31521 12.5469 2.12478 12.8537C1.93435 13.1606 1.84875 13.521 1.88087 13.8807C1.913 14.2404 2.0611 14.5799 2.30289 14.8481C2.54468 15.1164 2.86706 15.2988 3.22151 15.368L9.37502 16.5762V23.4375C9.37381 23.8113 9.48487 24.1767 9.69382 24.4866C9.90277 24.7965 10.2 25.0364 10.5469 25.1754C10.8933 25.3169 11.2742 25.3508 11.6402 25.2729C12.0061 25.1949 12.3402 25.0087 12.5989 24.7383L15.566 21.661L20.2735 25.7813C20.6131 26.0825 21.0511 26.2492 21.5051 26.25C21.704 26.2499 21.9017 26.2186 22.091 26.1575C22.4004 26.0593 22.6786 25.8818 22.8979 25.6427C23.1173 25.4036 23.2702 25.1112 23.3414 24.7946L28.0981 4.10159C28.1406 3.91497 28.1316 3.72029 28.0719 3.53841C28.0123 3.35654 27.9042 3.19433 27.7594 3.06917ZM20.5946 7.28792L10.0957 14.8067L4.28322 13.6664L20.5946 7.28792ZM11.25 23.4375V17.8735L14.1551 20.4211L11.25 23.4375ZM21.5074 24.375L11.8184 15.8789L25.7637 5.88401L21.5074 24.375Z" fill="#EFF2FD"/>
</svg>
